<svg xmlns="http://www.w3.org/2000/svg" viewBox="0 0 64 64" fill="none">
  <path d="M31.6 10.5c-11.5 0-20.9 9.1-20.9 20.2 0 4.2 1.4 8.2 3.9 11.5L12 53.5l11-2.9c2.7 1.4 5.6 2.1 8.6 2.1 11.5 0 20.8-9.1 20.8-20.2S43.1 10.5 31.6 10.5Z" stroke="white" stroke-width="4.5" stroke-linecap="round" stroke-linejoin="round"/>
  <path d="M24.8 22.9c.6-1.1 1.4-1.3 2.2-1.3h1.1c.7 0 1.2.4 1.5 1l1.8 4.1c.2.5.2 1 0 1.4l-1.1 1.5c-.3.4-.2.9.1 1.3 1.1 1.5 2.8 3.2 5.4 4.3.5.2 1 .1 1.3-.2l1.8-1.8c.4-.4.9-.5 1.4-.3l4.2 1.9c.6.3.9.9.8 1.5-.2 1.8-1.3 3.3-3 4.1-1.3.6-2.8.7-4.3.4-2.7-.6-5.8-2-8.8-4.5-2.9-2.5-5.1-5.4-6.1-8.4-.5-1.5-.5-3 0-4.3.5-1.2 1.7-2.3 3-2.7Z" stroke="white" stroke-width="3.8" stroke-linecap="round" stroke-linejoin="round"/>
</svg>