<svg xmlns="http://www.w3.org/2000/svg" viewBox="0 0 64 64" fill="none">
  <circle cx="32" cy="32" r="29" fill="#1490FF"/>
  <path d="M31.6 14.5c-9.8 0-17.8 7.8-17.8 17.3 0 3.6 1.2 7 3.4 9.8L15 49.3l9.4-2.5c2.3 1.2 4.8 1.8 7.2 1.8 9.9 0 17.8-7.7 17.8-17.3 0-9.5-8-17.3-17.8-17.3Z" stroke="white" stroke-width="4" stroke-linecap="round" stroke-linejoin="round"/>
  <path d="M25.9 25.3c.5-1 1.2-1.2 1.8-1.2h1c.6 0 1 .3 1.3.8l1.5 3.5c.2.4.2.8 0 1.2l-.9 1.2c-.3.4-.2.7.1 1.1.9 1.3 2.4 2.7 4.6 3.7.4.2.8.1 1.1-.2l1.5-1.6c.3-.4.8-.4 1.2-.2l3.6 1.7c.5.2.7.7.7 1.2-.2 1.5-1.1 2.8-2.6 3.5-1.1.5-2.4.6-3.7.3-2.3-.5-5-1.7-7.5-3.8-2.5-2.1-4.4-4.6-5.2-7.2-.4-1.3-.4-2.6 0-3.7.4-1 1.5-2 2.6-2.3Z" fill="white"/>
</svg>